<svg xmlns="http://www.w3.org/2000/svg" width="16" height="16" viewBox="0 0 16 16" fill="none">
  <path d="M0.5 8C0.5 9.63559 0.588291 10.9158 0.811654 11.9208C1.03376 12.9202 1.3827 13.6166 1.88305 14.1169C2.3834 14.6173 3.0798 14.9662 4.07916 15.1883C5.08421 15.4117 6.36441 15.5 8 15.5C9.63559 15.5 10.9158 15.4117 11.9208 15.1883C12.9202 14.9662 13.6166 14.6173 14.1169 14.1169C14.6173 13.6166 14.9662 12.9202 15.1883 11.9208C15.4117 10.9158 15.5 9.63559 15.5 8C15.5 6.36441 15.4117 5.08421 15.1883 4.07916C14.9662 3.07979 14.6173 2.3834 14.1169 1.88305C13.6166 1.3827 12.9202 1.03376 11.9208 0.811654C10.9158 0.588291 9.63559 0.5 8 0.5C6.36441 0.5 5.08421 0.588291 4.07916 0.811654C3.0798 1.03376 2.3834 1.3827 1.88305 1.88305C1.3827 2.3834 1.03376 3.07979 0.811654 4.07916C0.588291 5.08421 0.5 6.36441 0.5 8Z" stroke="#5920BC" stroke-opacity="0.25" stroke-linecap="round" stroke-linejoin="round"/>
  <path d="M6.66671 5.33333L9.33337 8L6.66671 10.6667" stroke="#5920BC" stroke-linecap="round" stroke-linejoin="round"/>
</svg>